<?xml version="1.0" standalone="no"?>
<!DOCTYPE svg PUBLIC "-//W3C//DTD SVG 20010904//EN"
 "http://www.w3.org/TR/2001/REC-SVG-20010904/DTD/svg10.dtd">
<svg version="1.0" xmlns="http://www.w3.org/2000/svg"
 width="225.000000pt" height="196.000000pt" viewBox="0 0 225.000000 196.000000"
 preserveAspectRatio="xMidYMid meet">

<g transform="translate(0.000000,196.000000) scale(0.100000,-0.100000)"
fill="#000000" stroke="none">
<path d="M638 1750 c-51 -15 -98 -51 -123 -95 l-25 -42 0 -507 c0 -480 1 -508
19 -543 22 -44 53 -74 100 -98 28 -14 72 -18 230 -22 108 -3 197 -7 199 -8 2
-2 -10 -29 -26 -61 l-30 -59 -323 3 c-331 4 -441 -4 -486 -34 -18 -11 -23 -24
-23 -59 0 -55 19 -70 110 -84 93 -15 1739 -16 1805 -1 65 15 75 24 75 76 0 84
-51 94 -500 94 l-336 0 -32 65 -32 65 133 0 c285 1 343 18 398 113 l24 42 0
505 0 505 -25 45 c-28 49 -73 84 -129 100 -44 12 -963 12 -1003 0z m1012 -635
l0 -505 -505 0 -505 0 0 505 0 505 505 0 505 0 0 -505z m-980 -595 c0 -5 -9
-10 -20 -10 -11 0 -20 5 -20 10 0 6 9 10 20 10 11 0 20 -4 20 -10z m80 0 c0
-5 -11 -10 -25 -10 -14 0 -25 5 -25 10 0 6 11 10 25 10 14 0 25 -4 25 -10z"/>
</g>
</svg>
