<?xml version="1.0" standalone="no"?>
<!DOCTYPE svg PUBLIC "-//W3C//DTD SVG 20010904//EN"
 "http://www.w3.org/TR/2001/REC-SVG-20010904/DTD/svg10.dtd">
<svg version="1.0" xmlns="http://www.w3.org/2000/svg"
 width="150.000000pt" height="75.000000pt" viewBox="0 0 312.000000 161.000000"
 preserveAspectRatio="xMidYMid meet">

<g transform="translate(0.000000,161.000000) scale(0.100000,-0.100000)"
fill="#000000" stroke="none">
<path d="M872 1195 c-126 -28 -305 -149 -407 -278 l-58 -72 98 -3 97 -3 57 62
c102 114 234 189 331 189 40 0 88 -43 96 -88 7 -35 8 -35 15 -12 15 54 10 116
-14 151 -39 58 -110 76 -215 54z"/>
<path d="M1987 1199 c-65 -10 -132 -52 -165 -101 -33 -51 -43 -162 -20 -218
41 -97 121 -144 243 -144 67 0 88 4 132 27 28 14 61 40 73 57 l21 30 -36 17
c-35 17 -37 17 -46 0 -31 -54 -158 -74 -235 -36 -63 30 -87 75 -82 150 4 51 9
64 38 94 55 56 140 70 216 36 23 -10 48 -29 57 -41 14 -20 18 -21 51 -10 20 6
36 14 36 17 0 21 -58 75 -102 96 -63 30 -115 37 -181 26z"/>
<path d="M1340 970 l0 -230 195 0 195 0 0 40 0 40 -155 0 -155 0 0 60 0 60
125 0 125 0 0 35 0 35 -125 0 -125 0 0 39 c0 22 -6 44 -15 51 -8 7 -15 16 -15
21 0 5 72 9 160 9 l160 0 0 35 0 35 -185 0 -185 0 0 -230z"/>
<path d="M2330 970 l0 -230 195 0 195 0 0 40 0 40 -155 0 -155 0 0 60 0 60
125 0 125 0 0 35 0 35 -125 0 -125 0 0 39 c0 22 -6 44 -15 51 -8 7 -15 16 -15
21 0 5 72 9 160 9 l160 0 0 35 0 35 -185 0 -185 0 0 -230z"/>
<path d="M925 686 c-98 -101 -184 -148 -281 -154 -57 -4 -65 -2 -88 21 -20 20
-26 37 -27 74 l-1 48 -14 -55 c-60 -236 186 -282 460 -86 62 44 195 177 216
215 11 21 9 21 -87 20 l-98 -1 -80 -82z"/>
<path d="M2190 659 c0 -5 5 -7 10 -4 6 3 10 8 10 11 0 2 -4 4 -10 4 -5 0 -10
-5 -10 -11z"/>
<path d="M1340 590 l0 -50 33 1 c30 2 30 2 5 6 -20 3 -28 10 -28 25 0 15 5 19
20 15 11 -3 20 -1 20 4 0 5 -9 9 -20 9 -30 0 -24 28 8 33 25 4 25 4 -5 6 l-33
1 0 -50z"/>
<path d="M1433 633 c-7 -2 -13 -22 -13 -43 0 -30 5 -40 20 -45 22 -7 40 1 40
17 0 7 -5 6 -15 -2 -20 -17 -35 -4 -35 30 0 35 15 46 37 28 14 -11 15 -11 11
2 -5 16 -25 22 -45 13z"/>
<path d="M1517 633 c-11 -10 -8 -81 3 -88 6 -3 19 -3 30 0 26 8 29 79 4 89
-20 8 -29 8 -37 -1z m38 -44 c0 -24 -5 -34 -15 -34 -16 0 -25 37 -16 62 10 26
31 8 31 -28z"/>
<path d="M1602 593 l-2 -53 33 1 c29 2 29 2 5 6 -24 4 -27 9 -31 51 l-3 47 -2
-52z"/>
<path d="M1680 590 l0 -50 33 1 c31 2 31 2 4 6 -20 3 -27 9 -25 21 2 9 11 16
21 16 9 -1 17 2 17 7 0 5 -9 9 -20 9 -30 0 -24 28 8 33 25 4 25 4 -5 6 l-33 1
0 -50z"/>
<path d="M1800 590 c0 -47 2 -50 25 -50 18 0 28 7 35 25 14 37 -3 75 -35 75
-23 0 -25 -3 -25 -50z m45 0 c0 -25 -5 -36 -17 -38 -15 -3 -18 4 -18 38 0 34
3 41 18 38 12 -2 17 -13 17 -38z"/>
<path d="M1933 590 c0 -30 2 -43 4 -27 2 15 2 39 0 55 -2 15 -4 2 -4 -28z"/>
<path d="M1970 590 c0 -27 5 -50 10 -50 6 0 10 15 10 33 l0 32 21 -32 c12 -18
23 -33 25 -33 2 0 3 24 3 53 -1 46 -2 48 -8 17 l-6 -35 -20 33 c-11 17 -23 32
-27 32 -4 0 -8 -22 -8 -50z"/>
<path d="M2082 628 c-32 -32 1 -104 36 -81 27 17 27 43 0 42 -20 0 -21 -1 -5
-8 16 -6 17 -9 4 -19 -20 -17 -41 10 -33 43 7 26 20 32 31 15 3 -5 11 -10 17
-10 7 0 6 6 -2 15 -15 18 -32 19 -48 3z"/>
<path d="M2160 590 l0 -50 33 1 c23 1 26 3 10 6 -27 5 -31 39 -5 46 16 4 16 5
0 6 -26 2 -22 29 5 34 16 3 13 5 -10 6 l-33 1 0 -50z"/>
<path d="M2251 589 c1 -48 2 -50 8 -19 l7 35 20 -32 c10 -18 22 -33 27 -33 4
0 6 24 5 53 -1 35 -2 42 -5 20 -5 -37 -18 -43 -28 -14 -3 11 -12 25 -20 31
-13 11 -15 5 -14 -41z"/>
<path d="M2353 590 c0 -30 2 -43 4 -27 2 15 2 39 0 55 -2 15 -4 2 -4 -28z"/>
<path d="M2390 590 c0 -50 0 -50 33 -49 29 1 30 2 7 8 -28 8 -34 37 -7 35 9
-1 17 2 17 7 0 5 -9 9 -21 9 -28 0 -19 23 12 31 21 6 21 7 -8 8 -33 1 -33 1
-33 -49z"/>
<path d="M2470 607 c0 -45 20 -71 48 -63 19 6 22 14 20 54 l-1 47 -6 -45 c-8
-61 -35 -63 -39 -2 -4 49 -22 57 -22 9z"/>
<path d="M2571 588 c1 -29 4 -43 6 -30 5 27 29 29 38 2 3 -11 11 -20 16 -20 6
0 7 6 2 12 -4 7 -7 29 -8 48 0 31 -3 35 -27 38 -28 3 -28 3 -27 -50z m45 31
c10 -17 -13 -36 -27 -22 -12 12 -4 33 11 33 5 0 12 -5 16 -11z"/>
<path d="M2667 633 c-15 -14 -6 -40 19 -51 31 -15 21 -36 -13 -27 -16 4 -22 2
-18 -5 9 -15 41 -12 55 5 10 12 10 18 0 30 -7 8 -19 15 -27 15 -8 0 -13 6 -10
13 2 6 12 11 21 11 9 -1 16 2 16 7 0 10 -34 12 -43 2z"/>
<path d="M1340 455 c0 -44 0 -45 33 -44 30 2 30 2 5 6 -34 5 -37 30 -5 36 l22
4 -22 2 c-33 2 -29 29 5 34 25 4 25 4 -5 6 -33 1 -33 0 -33 -44z"/>
<path d="M1422 455 c1 -45 1 -47 7 -15 l6 35 20 -32 c11 -18 23 -33 27 -33 4
0 7 21 6 48 -1 40 -2 42 -5 12 l-5 -35 -29 35 -28 35 1 -50z"/>
<path d="M1517 493 c-13 -12 -7 -61 9 -74 11 -9 20 -10 32 -2 24 15 28 43 5
43 -15 0 -16 -2 -3 -10 19 -12 -2 -35 -24 -27 -19 7 -21 48 -4 65 7 7 8 12 2
12 -6 0 -14 -3 -17 -7z"/>
<path d="M1555 490 c3 -5 11 -10 16 -10 6 0 7 5 4 10 -3 6 -11 10 -16 10 -6 0
-7 -4 -4 -10z"/>
<path d="M1603 455 c0 -27 2 -38 4 -22 2 15 2 37 0 50 -2 12 -4 0 -4 -28z"/>
<path d="M1642 455 c1 -45 1 -47 7 -15 l6 35 20 -32 c11 -18 23 -33 27 -33 4
0 7 21 6 48 -1 40 -2 42 -5 12 l-5 -35 -29 35 -28 35 1 -50z"/>
<path d="M1740 455 c0 -43 1 -45 28 -44 23 2 24 2 5 6 -13 2 -23 11 -23 18 0
7 10 16 23 18 l22 4 -22 2 c-13 0 -23 7 -23 15 0 8 10 17 23 19 19 4 18 4 -5
6 -27 1 -28 -1 -28 -44z"/>
<path d="M1820 455 c0 -43 1 -45 28 -44 23 2 24 2 5 6 -13 2 -23 11 -23 18 0
7 10 16 23 18 l22 4 -22 2 c-13 0 -23 7 -23 15 0 8 10 17 23 19 19 4 18 4 -5
6 -27 1 -28 -1 -28 -44z"/>
<path d="M1901 453 c1 -27 4 -38 6 -25 2 12 8 22 12 22 5 0 16 -10 25 -22 15
-21 16 -21 7 -2 -7 14 -7 24 1 32 17 17 1 42 -27 42 -23 0 -25 -3 -24 -47z
m47 25 c-7 -19 -38 -22 -38 -4 0 10 9 16 21 16 12 0 19 -5 17 -12z"/>
<path d="M1983 455 c0 -27 2 -38 4 -22 2 15 2 37 0 50 -2 12 -4 0 -4 -28z"/>
<path d="M2022 453 c1 -41 2 -43 5 -13 l5 35 29 -35 28 -35 -1 50 c-1 45 -1
47 -7 15 l-6 -35 -20 33 c-11 17 -23 32 -27 32 -4 0 -7 -21 -6 -47z"/>
<path d="M2114 473 c-9 -34 7 -58 37 -58 17 0 25 6 27 23 3 16 -2 22 -15 22
-15 0 -16 -2 -3 -10 19 -12 -2 -35 -24 -27 -19 7 -21 48 -4 65 9 9 9 12 0 12
-6 0 -15 -12 -18 -27z"/>
<path d="M2150 496 c0 -2 7 -7 16 -10 8 -3 12 -2 9 4 -6 10 -25 14 -25 6z"/>
<path d="M2230 480 c0 -13 9 -22 25 -26 33 -8 32 -32 -2 -37 -27 -5 -27 -5 2
-3 40 1 47 32 10 46 -18 7 -25 15 -21 25 3 8 1 15 -4 15 -6 0 -10 -9 -10 -20z"/>
<path d="M2314 486 c-11 -28 1 -71 20 -74 10 -2 22 0 27 5 6 6 1 9 -13 9 -18
-1 -24 5 -26 28 -2 16 2 32 10 37 10 7 10 9 0 9 -7 0 -15 -6 -18 -14z"/>
<path d="M2403 455 c0 -27 2 -40 4 -27 3 13 12 22 23 22 11 0 20 -9 23 -22 2
-13 4 0 4 27 0 28 -2 40 -4 28 -3 -14 -12 -23 -23 -23 -11 0 -20 9 -23 23 -2
12 -4 0 -4 -28z"/>
<path d="M2484 473 c-9 -34 7 -58 37 -58 21 0 24 5 24 39 0 26 -5 41 -15 43
-12 4 -12 3 -2 -5 19 -13 11 -66 -10 -70 -22 -4 -35 42 -18 63 8 10 9 15 1 15
-6 0 -14 -12 -17 -27z"/>
<path d="M2574 486 c-3 -8 -4 -27 -2 -43 4 -36 41 -44 58 -13 13 24 6 70 -11
70 -8 0 -7 -5 1 -15 17 -21 4 -67 -18 -63 -21 4 -29 57 -10 69 10 7 10 9 0 9
-7 0 -15 -6 -18 -14z"/>
<path d="M2662 458 l-2 -48 33 1 c29 2 29 2 5 6 -24 4 -27 10 -31 46 l-4 42
-1 -47z"/>
</g>
</svg>
