<?xml version="1.0" standalone="no"?>
<!DOCTYPE svg PUBLIC "-//W3C//DTD SVG 20010904//EN"
 "http://www.w3.org/TR/2001/REC-SVG-20010904/DTD/svg10.dtd">
<svg version="1.0" xmlns="http://www.w3.org/2000/svg"
 width="1450.000000pt" height="1104.000000pt" viewBox="0 0 1450.000000 1104.000000"
 preserveAspectRatio="xMidYMid meet">

<g transform="translate(0.000000,1104.000000) scale(0.100000,-0.100000)"
fill="#000000" stroke="none">
<path d="M9425 10649 c-1073 -100 -1966 -848 -2250 -1884 -61 -222 -77 -343
-82 -615 -5 -250 5 -386 42 -564 8 -38 13 -72 11 -74 -8 -8 -331 19 -525 44
-389 49 -703 111 -1066 213 -1385 386 -2629 1179 -3574 2279 -62 73 -116 132
-120 132 -12 0 -127 -238 -174 -360 -117 -303 -167 -582 -167 -929 -1 -578
182 -1112 538 -1571 132 -170 382 -408 545 -519 27 -18 47 -34 45 -36 -8 -7
-244 17 -348 36 -258 45 -481 119 -712 235 -49 25 -92 44 -93 42 -8 -7 15
-319 30 -418 52 -350 185 -698 383 -1005 128 -199 366 -461 552 -608 291 -230
648 -406 989 -486 46 -11 85 -22 88 -25 6 -5 -151 -40 -282 -63 -144 -25 -608
-25 -749 0 -54 10 -101 15 -104 13 -7 -8 44 -146 98 -267 197 -437 530 -825
937 -1092 369 -242 794 -382 1251 -413 l103 -7 -108 -79 c-264 -195 -521 -350
-827 -499 -585 -283 -1144 -437 -1826 -501 -176 -16 -722 -14 -898 4 -72 7
-132 13 -132 11 0 -1 55 -35 122 -76 930 -566 1945 -914 2995 -1027 314 -33
474 -41 818 -41 668 0 1217 63 1826 210 1782 429 3297 1529 4295 3119 669
1064 1068 2281 1154 3517 6 88 11 300 11 472 l0 311 112 85 c310 236 616 533
868 842 99 122 242 313 273 366 20 34 36 38 -143 -36 -340 -140 -886 -284
-1206 -320 -33 -4 -69 -9 -80 -12 -11 -3 25 25 80 63 369 249 661 574 859 956
55 106 139 303 161 375 5 19 -7 15 -92 -33 -409 -233 -898 -422 -1365 -530
l-157 -37 -83 78 c-220 207 -418 346 -673 471 -252 123 -492 197 -780 239
-133 19 -434 27 -570 14z"/>
</g>
</svg>
