<?xml version="1.0" standalone="no"?>
<!DOCTYPE svg PUBLIC "-//W3C//DTD SVG 20010904//EN"
 "http://www.w3.org/TR/2001/REC-SVG-20010904/DTD/svg10.dtd">
<svg version="1.0" xmlns="http://www.w3.org/2000/svg"
 width="225.000000pt" height="225.000000pt" viewBox="0 0 225.000000 225.000000"
 preserveAspectRatio="xMidYMid meet">

<g transform="translate(0.000000,225.000000) scale(0.100000,-0.100000)"
fill="#000000" stroke="none">
<path d="M985 2239 c-267 -36 -488 -149 -675 -345 -146 -154 -237 -327 -287
-547 -22 -98 -22 -346 0 -444 53 -235 144 -401 311 -569 174 -173 342 -263
591 -315 86 -18 333 -16 422 4 235 53 401 144 569 311 167 168 258 334 311
569 22 98 22 346 0 444 -53 235 -144 401 -311 569 -136 136 -266 218 -436 274
-143 48 -353 69 -495 49z m360 -69 c454 -89 806 -486 844 -952 32 -397 -149
-769 -478 -986 -177 -116 -369 -173 -586 -173 -217 0 -409 57 -586 173 -566
372 -648 1169 -169 1648 256 256 612 362 975 290z"/>
<path d="M1030 1784 c-109 -29 -199 -106 -248 -212 -23 -51 -27 -72 -30 -194
l-4 -138 -35 0 c-40 0 -88 -22 -97 -45 -8 -22 -8 -678 0 -700 17 -43 40 -45
509 -45 469 0 492 2 509 45 8 22 8 678 0 700 -9 22 -57 45 -94 45 l-30 0 0 78
c-1 42 -5 108 -9 145 -22 166 -137 291 -299 326 -68 14 -104 13 -172 -5z m249
-74 c69 -37 119 -91 153 -166 18 -40 23 -73 26 -176 l4 -128 -45 0 -45 0 -4
123 c-4 140 -19 181 -88 239 -117 101 -301 63 -366 -76 -21 -45 -24 -66 -24
-168 l0 -118 -45 0 -45 0 0 120 c0 142 20 209 83 277 76 82 153 115 263 110
56 -3 82 -10 133 -37z m-82 -111 c40 -15 82 -57 104 -104 14 -31 19 -64 19
-147 l0 -108 -196 0 -197 0 5 113 c7 147 30 196 113 240 35 19 111 22 152 6z
m388 -754 l0 -340 -460 0 -460 0 -3 330 c-1 181 0 336 3 343 3 10 100 12 462
10 l458 -3 0 -340z"/>
<path d="M1065 1021 c-69 -42 -92 -108 -60 -174 14 -30 15 -46 6 -112 -18
-127 -30 -115 114 -115 144 0 132 -12 114 115 -9 65 -8 82 5 110 21 44 20 83
-4 123 -41 66 -117 89 -175 53z m119 -57 c30 -30 33 -62 10 -106 -15 -29 -14
-73 2 -160 l6 -28 -77 0 -77 0 6 28 c17 89 18 133 2 157 -24 37 -20 78 10 109
36 35 82 35 118 0z"/>
</g>
</svg>
